# xmcd CD database file
#
# Track frame offsets:
#	150
#	19754
#	38388
#	62006
#	81056
#	116465
#	131179
#	152683
#	169406
#	199740
#	222640
#	235279
#	251802
#	266235
#
# Disc length: 3809 seconds
#
# Revision: 0
# Processed by: cddbd v1.5.1PL0 Copyright (c) Steve Scherf et al.
# Submitted via: CDex 1.51
#
DISCID=c90edf0e
DTITLE=Hermanas ferrin - Mi linda Guajira
DYEAR=1999
DGENRE=Salsa
TTITLE0=Mi linda guajira
TTITLE1=La mañana de Abril
TTITLE2=Quien dice que yo
TTITLE3=Caserita vendo agua
TTITLE4=Inspiracion a Santiago
TTITLE5=Mujercita linda
TTITLE6=Rosa nº 2
TTITLE7=Pensamiento
TTITLE8=Tirenlo al olvido
TTITLE9=La celosa
TTITLE10=Mensaje a mi amor
TTITLE11=Madre mia
TTITLE12=Corazon de nieve
TTITLE13=Mi linda guajira (bonus track)
EXTD=YEAR: 1999
EXTT0=
EXTT1=
EXTT2=
EXTT3=
EXTT4=
EXTT5=
EXTT6=
EXTT7=
EXTT8=
EXTT9=
EXTT10=
EXTT11=
EXTT12=
EXTT13=
PLAYORDER=
